M48
;Layer_Color=9474304
;FILE_FORMAT=2:5
INCH,LZ
;TYPE=PLATED
T1F00S00C0.02800
T2F00S00C0.03543
T3F00S00C0.05512
%
T01
X0329149Y0307239
X0268945Y0313488
X02545Y0342
X02565Y0357
X0287091Y034276
X0295Y0350362
X0328Y0336
X04Y0356362
X0443Y0365
X0486149Y0365739
T02
X0219Y0335
Y0345
X0279Y0316
X0289
X0413Y0314
X0423
X0447
X0457
T03
X0203Y03225
X0228
X0253
M30
